<svg width="95" height="95" viewBox="0 0 65 87" fill="none" xmlns="http://www.w3.org/2000/svg">
<path d="M16.1278 14.9712C16.13 15.2473 16.3556 15.4694 16.6317 15.4672L21.1316 15.4316C21.4077 15.4294 21.6298 15.2038 21.6276 14.9277C21.6254 14.6515 21.3998 14.4294 21.1237 14.4316L17.1238 14.4633L17.0921 10.4634C17.09 10.1873 16.8643 9.96517 16.5882 9.96736C16.3121 9.96954 16.09 10.1952 16.0922 10.4713L16.1278 14.9712ZM30.0194 0.649254L16.2714 14.6165L16.9841 15.3179L30.7321 1.35075L30.0194 0.649254Z" fill="black"/>
<path d="M16.2829 25.8784C16.2903 26.1545 16.5201 26.3723 16.7961 26.3649L21.2945 26.2443C21.5706 26.2369 21.7883 26.0072 21.7809 25.7311C21.7735 25.4551 21.5438 25.2373 21.2677 25.2447L17.2692 25.3518L17.162 21.3533C17.1546 21.0772 16.9249 20.8594 16.6488 20.8668C16.3728 20.8742 16.155 21.104 16.1624 21.3801L16.2829 25.8784ZM30.0128 11.1797L16.4198 25.5211L17.1456 26.209L30.7386 11.8676L30.0128 11.1797Z" fill="black"/>
<path d="M16.093 35.7657C16.093 36.0418 16.3169 36.2657 16.593 36.2657H21.093C21.3692 36.2657 21.593 36.0418 21.593 35.7657C21.593 35.4895 21.3692 35.2657 21.093 35.2657H17.093V31.2657C17.093 30.9895 16.8692 30.7657 16.593 30.7657C16.3169 30.7657 16.093 30.9895 16.093 31.2657L16.093 35.7657ZM40.2971 11.3545L16.2395 35.4121L16.9466 36.1192L41.0042 12.0617L40.2971 11.3545Z" fill="black"/>
<path d="M16.093 47.6047C16.093 47.8809 16.3169 48.1047 16.593 48.1047H21.093C21.3692 48.1047 21.593 47.8809 21.593 47.6047C21.593 47.3286 21.3692 47.1047 21.093 47.1047H17.093V43.1047C17.093 42.8286 16.8692 42.6047 16.593 42.6047C16.3169 42.6047 16.093 42.8286 16.093 43.1047L16.093 47.6047ZM40.2971 23.1936L16.2395 47.2512L16.9466 47.9583L41.0042 23.9007L40.2971 23.1936Z" fill="black"/>
<path d="M16.2182 59.5699C16.2182 59.846 16.442 60.0699 16.7182 60.0699L21.2182 60.0699C21.4943 60.0699 21.7182 59.846 21.7182 59.5699C21.7182 59.2938 21.4943 59.0699 21.2182 59.0699H17.2182V55.0699C17.2182 54.7938 16.9943 54.5699 16.7182 54.5699C16.442 54.5699 16.2182 54.7938 16.2182 55.0699L16.2182 59.5699ZM52.2595 23.3215L16.3646 59.2163L17.0717 59.9235L52.9666 24.0286L52.2595 23.3215Z" fill="black"/>
<path d="M16.2182 70.9704C16.2182 71.2465 16.442 71.4704 16.7182 71.4704L21.2182 71.4704C21.4943 71.4704 21.7182 71.2465 21.7182 70.9704C21.7182 70.6943 21.4943 70.4704 21.2182 70.4704H17.2182V66.4704C17.2182 66.1943 16.9943 65.9704 16.7182 65.9704C16.442 65.9704 16.2182 66.1943 16.2182 66.4704L16.2182 70.9704ZM52.2595 34.722L16.3646 70.6168L17.0717 71.3239L52.9666 35.4291L52.2595 34.722Z" fill="black"/>
<path d="M16.3124 82.9038C16.3124 83.18 16.5362 83.4038 16.8124 83.4038L21.3124 83.4038C21.5885 83.4038 21.8124 83.18 21.8124 82.9038C21.8124 82.6277 21.5885 82.4038 21.3124 82.4038L17.3124 82.4038L17.3124 78.4038C17.3124 78.1277 17.0885 77.9038 16.8124 77.9038C16.5362 77.9038 16.3124 78.1277 16.3124 78.4038L16.3124 82.9038ZM63.754 35.2552L16.4588 82.5503L17.1659 83.2574L64.4611 35.9623L63.754 35.2552Z" fill="black"/>
<path d="M28.1009 83.4243C28.1009 83.7004 28.3248 83.9243 28.6009 83.9243L33.1009 83.9243C33.3771 83.9243 33.6009 83.7004 33.6009 83.4243C33.6009 83.1481 33.3771 82.9243 33.1009 82.9243H29.1009V78.9243C29.1009 78.6481 28.8771 78.4243 28.6009 78.4243C28.3248 78.4243 28.1009 78.6481 28.1009 78.9243L28.1009 83.4243ZM63.3363 47.9819L28.2474 83.0707L28.9545 83.7778L64.0434 48.689L63.3363 47.9819Z" fill="black"/>
<path d="M3.33055 11V4.45455H4.12317V7.7017H4.19987L7.14021 4.45455H8.17572L5.42714 7.40767L8.17572 11H7.21692L4.94135 7.95739L4.12317 8.87784V11H3.33055ZM3.73485 23V16.4545H4.52746V22.2969H7.57008V23H3.73485ZM2.26268 28.4545H3.2087L5.43314 33.8878H5.50984L7.73427 28.4545H8.68029V35H7.93882V30.027H7.8749L5.82944 35H5.11353L3.06808 30.027H3.00416V35H2.26268V28.4545ZM8.06826 40.4545V47H7.30121L3.73445 41.8608H3.67053V47H2.87792V40.4545H3.64496L7.22451 45.6065H7.28843V40.4545H8.06826ZM8.36109 55.7273C8.36109 56.4176 8.23645 57.0142 7.98716 57.517C7.73787 58.0199 7.39589 58.4077 6.96123 58.6804C6.52657 58.9531 6.03013 59.0895 5.47189 59.0895C4.91365 59.0895 4.4172 58.9531 3.98254 58.6804C3.54788 58.4077 3.20591 58.0199 2.95662 57.517C2.70733 57.0142 2.58268 56.4176 2.58268 55.7273C2.58268 55.0369 2.70733 54.4403 2.95662 53.9375C3.20591 53.4347 3.54788 53.0469 3.98254 52.7741C4.4172 52.5014 4.91365 52.3651 5.47189 52.3651C6.03013 52.3651 6.52657 52.5014 6.96123 52.7741C7.39589 53.0469 7.73787 53.4347 7.98716 53.9375C8.23645 54.4403 8.36109 55.0369 8.36109 55.7273ZM7.59405 55.7273C7.59405 55.1605 7.49923 54.6822 7.3096 54.2923C7.1221 53.9023 6.86748 53.6072 6.54575 53.407C6.22615 53.2067 5.86819 53.1065 5.47189 53.1065C5.07558 53.1065 4.71656 53.2067 4.39483 53.407C4.07523 53.6072 3.82061 53.9023 3.63098 54.2923C3.44348 54.6822 3.34973 55.1605 3.34973 55.7273C3.34973 56.294 3.44348 56.7724 3.63098 57.1623C3.82061 57.5522 4.07523 57.8473 4.39483 58.0476C4.71656 58.2479 5.07558 58.348 5.47189 58.348C5.86819 58.348 6.22615 58.2479 6.54575 58.0476C6.86748 57.8473 7.1221 57.5522 7.3096 57.1623C7.49923 56.7724 7.59405 56.294 7.59405 55.7273ZM3.40965 71V64.4545H5.6213C6.1348 64.4545 6.55454 64.5472 6.88053 64.7326C7.20866 64.9158 7.45156 65.1641 7.60923 65.4773C7.7669 65.7905 7.84573 66.1399 7.84573 66.5256C7.84573 66.9112 7.7669 67.2617 7.60923 67.5771C7.45369 67.8924 7.21292 68.1438 6.88693 68.3313C6.56093 68.5167 6.14332 68.6094 5.63409 68.6094H4.04886V67.9062H5.60852C5.96008 67.9062 6.24239 67.8455 6.45546 67.7241C6.66853 67.6026 6.82301 67.4386 6.91889 67.2319C7.0169 67.0231 7.0659 66.7876 7.0659 66.5256C7.0659 66.2635 7.0169 66.0291 6.91889 65.8224C6.82301 65.6158 6.66747 65.4538 6.45227 65.3366C6.23707 65.2173 5.95156 65.1577 5.59573 65.1577H4.20227V71H3.40965ZM5.21621 80.9545H6.08552L6.81422 81.9134L7.00598 82.169L8.09263 83.6136H7.22331L6.5074 82.6548L6.32842 82.4119L5.21621 80.9545ZM8.36109 79.7273C8.36109 80.4176 8.23645 81.0142 7.98716 81.517C7.73787 82.0199 7.39589 82.4077 6.96123 82.6804C6.52657 82.9531 6.03013 83.0895 5.47189 83.0895C4.91365 83.0895 4.4172 82.9531 3.98254 82.6804C3.54788 82.4077 3.20591 82.0199 2.95662 81.517C2.70733 81.0142 2.58268 80.4176 2.58268 79.7273C2.58268 79.0369 2.70733 78.4403 2.95662 77.9375C3.20591 77.4347 3.54788 77.0469 3.98254 76.7741C4.4172 76.5014 4.91365 76.3651 5.47189 76.3651C6.03013 76.3651 6.52657 76.5014 6.96123 76.7741C7.39589 77.0469 7.73787 77.4347 7.98716 77.9375C8.23645 78.4403 8.36109 79.0369 8.36109 79.7273ZM7.59405 79.7273C7.59405 79.1605 7.49923 78.6822 7.3096 78.2923C7.1221 77.9023 6.86748 77.6072 6.54575 77.407C6.22615 77.2067 5.86819 77.1065 5.47189 77.1065C5.07558 77.1065 4.71656 77.2067 4.39483 77.407C4.07523 77.6072 3.82061 77.9023 3.63098 78.2923C3.44348 78.6822 3.34973 79.1605 3.34973 79.7273C3.34973 80.294 3.44348 80.7724 3.63098 81.1623C3.82061 81.5522 4.07523 81.8473 4.39483 82.0476C4.71656 82.2479 5.07558 82.348 5.47189 82.348C5.86819 82.348 6.22615 82.2479 6.54575 82.0476C6.86748 81.8473 7.1221 81.5522 7.3096 81.1623C7.49923 80.7724 7.59405 80.294 7.59405 79.7273Z" fill="black"/>
</svg>